<svg xmlns="http://www.w3.org/2000/svg" width="128" height="128" viewBox="0 0 24 24" fill="none" class="injected-svg" data-src="https://cdn.hugeicons.com/icons/dice-faces-03-stroke-rounded.svg?v=1.0.1" xmlns:xlink="http://www.w3.org/1999/xlink" role="img" color="#000000">
<path d="M12 21C15.7497 21 17.6246 21 18.9389 20.0451C19.3634 19.7367 19.7367 19.3634 20.0451 18.9389C21 17.6246 21 15.7497 21 12C21 8.25027 21 6.3754 20.0451 5.06107C19.7367 4.6366 19.3634 4.26331 18.9389 3.95492C17.6246 3 15.7497 3 12 3C8.25027 3 6.3754 3 5.06107 3.95491C4.6366 4.26331 4.26331 4.6366 3.95492 5.06107C3 6.3754 3 8.25027 3 12C3 15.7497 3 17.6246 3.95491 18.9389C4.26331 19.3634 4.6366 19.7367 5.06107 20.0451C6.3754 21 8.25027 21 12 21Z" stroke="#000000" stroke-width="2" stroke-linecap="round" stroke-linejoin="round"></path>
<path d="M12 12V12.01" stroke="#000000" stroke-width="2" stroke-linecap="round" stroke-linejoin="round"></path>
<path d="M8 8V8.01" stroke="#000000" stroke-width="2" stroke-linecap="round" stroke-linejoin="round"></path>
<path d="M16 16V16.01" stroke="#000000" stroke-width="2" stroke-linecap="round" stroke-linejoin="round"></path>
</svg>